<svg xmlns="http://www.w3.org/2000/svg" version="1.1" xmlns:xlink="http://www.w3.org/1999/xlink" xmlns:svgjs="http://svgjs.com/svgjs" width="768" height="768" preserveAspectRatio="none" viewBox="0 0 768 768"><g mask="url(&quot;#SvgjsMask1024&quot;)" fill="none"><path d="M67.6 663.45L111.98 663.45L111.98 692.59L67.6 692.59z" fill="rgba(0, 150, 70, 1)"></path><path d="M505.42 0.35a57.65 57.65 0 1 0 101.38 54.92z" stroke="rgba(0, 150, 70, 1)"></path><path d="M303.5 440.26L307.87 440.26L307.87 444.63L303.5 444.63z" fill="rgba(0, 150, 70, 1)"></path><path d="M564.43 69.49L608.18 69.49L608.18 97.95L564.43 97.95z" stroke="rgba(0, 214, 100, 1)"></path><path d="M449.94 229.04 a73.18 73.18 0 1 0 146.36 0 a73.18 73.18 0 1 0 -146.36 0z" fill="rgba(0, 214, 100, 1)"></path><path d="M655.85 390.77L714.59 390.77L714.59 449.51L655.85 449.51z" stroke="rgba(102, 230, 162, 1)"></path><path d="M293.54 619.29L306.95 619.29L306.95 632.7L293.54 632.7z" stroke="rgba(0, 214, 100, 1)"></path><path d="M52.89 81.35 a64.9 64.9 0 1 0 129.8 0 a64.9 64.9 0 1 0 -129.8 0z" fill="rgba(102, 230, 162, 1)"></path><path d="M349.46 167.58L384.47 167.58L384.47 202.59L349.46 202.59z" fill="rgba(0, 150, 70, 1)"></path><path d="M42.1 229.39L100.33 229.39L100.33 259.12L42.1 259.12z" fill="rgba(0, 214, 100, 1)"></path><path d="M70.3 484.56L79.59 484.56L79.59 517.81L70.3 517.81z" fill="rgba(0, 150, 70, 1)"></path><path d="M498.89 497.68a18.04 18.04 0 1 0-11.16 34.31z" stroke="rgba(102, 230, 162, 1)"></path><path d="M26.52 221.65L68.55 221.65L68.55 262.5L26.52 262.5z" fill="rgba(102, 230, 162, 1)"></path></g><defs><mask id="SvgjsMask1024"><rect width="768" height="768" fill="#ffffff"></rect></mask></defs></svg>