<svg xmlns="http://www.w3.org/2000/svg" version="1.1" xmlns:xlink="http://www.w3.org/1999/xlink" xmlns:svgjs="http://svgjs.com/svgjs" width="1500" height="500" preserveAspectRatio="none" viewBox="0 0 1500 500"><g mask="url(&quot;#SvgjsMask1057&quot;)" fill="none"><path d="M368.42 100.13a25.21 25.21 0 1 0-50.33 2.96z" fill="rgba(153, 239, 193, 1)"></path><path d="M344.96 57.95L387.64 57.95L387.64 102.34L344.96 102.34z" stroke="rgba(229, 229, 229, 1)"></path><path d="M639.92 217.18L646.64 217.18L646.64 243.76L639.92 243.76z" stroke="rgba(153, 239, 193, 1)"></path><path d="M1260.03 109.77L1302.33 109.77L1302.33 138.65L1260.03 138.65z" fill="rgba(153, 239, 193, 1)"></path><path d="M1037.15 259.99 a21.39 21.39 0 1 0 42.78 0 a21.39 21.39 0 1 0 -42.78 0z" fill="rgba(212, 212, 212, 1)"></path><path d="M739.05 265.52 a7.03 7.03 0 1 0 14.06 0 a7.03 7.03 0 1 0 -14.06 0z" stroke="rgba(229, 229, 229, 1)"></path><path d="M1432.04 156.87L1457.55 156.87L1457.55 182.38L1432.04 182.38z" fill="rgba(212, 212, 212, 1)"></path><path d="M778.59 455.43a38.9 38.9 0 1 0 40.6-66.36z" fill="rgba(204, 247, 224, 1)"></path><path d="M895.93 212.25 a33.62 33.62 0 1 0 67.24 0 a33.62 33.62 0 1 0 -67.24 0z" fill="rgba(153, 239, 193, 1)"></path><path d="M778.3 134.35a26.99 26.99 0 1 0-12.34-52.55z" fill="rgba(229, 229, 229, 1)"></path><path d="M396.71 23.25L421.52 23.25L421.52 24.02L396.71 24.02z" fill="rgba(229, 229, 229, 1)"></path><path d="M58.86 127.23L60.01 127.23L60.01 152.86L58.86 152.86z" stroke="rgba(212, 212, 212, 1)"></path><path d="M142.78 111.67L146.78 111.67L146.78 115.64L142.78 115.64z" fill="rgba(204, 247, 224, 1)"></path><path d="M166.89 95.45L170.61 95.45L170.61 141.13L166.89 141.13z" stroke="rgba(204, 247, 224, 1)"></path><path d="M350.93 319.31a4.67 4.67 0 1 0 7.51-5.56z" stroke="rgba(212, 212, 212, 1)"></path><path d="M37.3 144.05 a43.08 43.08 0 1 0 86.16 0 a43.08 43.08 0 1 0 -86.16 0z" fill="rgba(229, 229, 229, 1)"></path><path d="M517.31 66.09L531.41 66.09L531.41 73.14L517.31 73.14z" stroke="rgba(212, 212, 212, 1)"></path><path d="M482.26 280.42 a6.14 6.14 0 1 0 12.28 0 a6.14 6.14 0 1 0 -12.28 0z" stroke="rgba(153, 239, 193, 1)"></path><path d="M1482.26 163.19L1490.28 163.19L1490.28 212.25L1482.26 212.25z" stroke="rgba(212, 212, 212, 1)"></path><path d="M168.56 431.51 a31.74 31.74 0 1 0 63.48 0 a31.74 31.74 0 1 0 -63.48 0z" stroke="rgba(212, 212, 212, 1)"></path><path d="M788.21 43.99 a15.92 15.92 0 1 0 31.84 0 a15.92 15.92 0 1 0 -31.84 0z" fill="rgba(153, 239, 193, 1)"></path><path d="M580.31 463.98 a25.69 25.69 0 1 0 51.38 0 a25.69 25.69 0 1 0 -51.38 0z" stroke="rgba(153, 239, 193, 1)"></path><path d="M1407.1 333.85 a10.29 10.29 0 1 0 20.58 0 a10.29 10.29 0 1 0 -20.58 0z" stroke="rgba(153, 239, 193, 1)"></path><path d="M275.51 324.06L282.9 324.06L282.9 369.17L275.51 369.17z" fill="rgba(204, 247, 224, 1)"></path><path d="M409.11 327.96 a42.04 42.04 0 1 0 84.08 0 a42.04 42.04 0 1 0 -84.08 0z" fill="rgba(204, 247, 224, 1)"></path><path d="M924.69 143.98L970.77 143.98L970.77 190.06L924.69 190.06z" stroke="rgba(229, 229, 229, 1)"></path><path d="M767.1 187.13L773.22 187.13L773.22 193.25L767.1 193.25z" fill="rgba(204, 247, 224, 1)"></path><path d="M992.17 322.42L1037.51 322.42L1037.51 343.62L992.17 343.62z" stroke="rgba(204, 247, 224, 1)"></path><path d="M1331.91 344.22L1348.44 344.22L1348.44 360.75L1331.91 360.75z" stroke="rgba(229, 229, 229, 1)"></path><path d="M571.23 150.62L618.62 150.62L618.62 198.01L571.23 198.01z" stroke="rgba(204, 247, 224, 1)"></path><path d="M81.29 479.09 a16.13 16.13 0 1 0 32.26 0 a16.13 16.13 0 1 0 -32.26 0z" stroke="rgba(204, 247, 224, 1)"></path><path d="M1156.12 107.62 a45.67 45.67 0 1 0 91.34 0 a45.67 45.67 0 1 0 -91.34 0z" stroke="rgba(229, 229, 229, 1)"></path><path d="M783.97 150.64 a25.26 25.26 0 1 0 50.52 0 a25.26 25.26 0 1 0 -50.52 0z" stroke="rgba(153, 239, 193, 1)"></path><path d="M1146.89 330.33 a3.35 3.35 0 1 0 6.7 0 a3.35 3.35 0 1 0 -6.7 0z" fill="rgba(229, 229, 229, 1)"></path><path d="M556.49 110.19L564.07 110.19L564.07 117.77L556.49 117.77z" fill="rgba(204, 247, 224, 1)"></path><path d="M332.45 365.59a8.28 8.28 0 1 0 12.36 11.02z" stroke="rgba(212, 212, 212, 1)"></path><path d="M495.8 302.23 a8.91 8.91 0 1 0 17.82 0 a8.91 8.91 0 1 0 -17.82 0z" fill="rgba(204, 247, 224, 1)"></path><path d="M464 164.48L500.84 164.48L500.84 201.32L464 201.32z" fill="rgba(204, 247, 224, 1)"></path></g><defs><mask id="SvgjsMask1057"><rect width="1500" height="500" fill="#ffffff"></rect></mask></defs></svg>